<svg width="104" height="48" viewBox="0 0 104 48" fill="none" xmlns="http://www.w3.org/2000/svg">
<g clip-path="url(#clip0_33_257)">
<rect width="104" height="48" rx="8" fill="#112211"/>
<path d="M28.7778 29.64C28.0218 29.64 27.2892 29.5327 26.5798 29.318C25.8798 29.1033 25.3245 28.8187 24.9138 28.464L25.5438 27.05C25.9452 27.3673 26.4352 27.6287 27.0138 27.834C27.6018 28.03 28.1898 28.128 28.7778 28.128C29.5058 28.128 30.0472 28.0113 30.4018 27.778C30.7658 27.5447 30.9478 27.2367 30.9478 26.854C30.9478 26.574 30.8452 26.3453 30.6398 26.168C30.4438 25.9813 30.1918 25.8367 29.8838 25.734C29.5758 25.6313 29.1558 25.5147 28.6238 25.384C27.8772 25.2067 27.2705 25.0293 26.8038 24.852C26.3465 24.6747 25.9498 24.3993 25.6138 24.026C25.2872 23.6433 25.1238 23.13 25.1238 22.486C25.1238 21.9447 25.2685 21.4547 25.5578 21.016C25.8565 20.568 26.2998 20.2133 26.8878 19.952C27.4852 19.6907 28.2132 19.56 29.0718 19.56C29.6692 19.56 30.2572 19.6347 30.8358 19.784C31.4145 19.9333 31.9138 20.148 32.3338 20.428L31.7598 21.842C31.3305 21.59 30.8825 21.3987 30.4158 21.268C29.9492 21.1373 29.4965 21.072 29.0578 21.072C28.3392 21.072 27.8025 21.1933 27.4478 21.436C27.1025 21.6787 26.9298 22.0007 26.9298 22.402C26.9298 22.682 27.0278 22.9107 27.2238 23.088C27.4292 23.2653 27.6858 23.4053 27.9938 23.508C28.3018 23.6107 28.7218 23.7273 29.2538 23.858C29.9818 24.026 30.5792 24.2033 31.0458 24.39C31.5125 24.5673 31.9092 24.8427 32.2358 25.216C32.5718 25.5893 32.7398 26.0933 32.7398 26.728C32.7398 27.2693 32.5905 27.7593 32.2918 28.198C32.0025 28.6367 31.5592 28.9867 30.9618 29.248C30.3645 29.5093 29.6365 29.64 28.7778 29.64ZM36.1265 29.5H34.3765V22.024H36.1265V29.5ZM35.2585 20.792C34.9412 20.792 34.6752 20.694 34.4605 20.498C34.2458 20.2927 34.1385 20.0407 34.1385 19.742C34.1385 19.4433 34.2458 19.196 34.4605 19C34.6752 18.7947 34.9412 18.692 35.2585 18.692C35.5758 18.692 35.8418 18.79 36.0565 18.986C36.2712 19.1727 36.3785 19.4107 36.3785 19.7C36.3785 20.008 36.2712 20.2693 36.0565 20.484C35.8512 20.6893 35.5852 20.792 35.2585 20.792ZM44.1774 22.024H45.8434V28.366C45.8434 30.998 44.4994 32.314 41.8114 32.314C41.0927 32.314 40.4114 32.2207 39.7674 32.034C39.1234 31.8567 38.5914 31.5953 38.1714 31.25L38.9554 29.934C39.2821 30.2047 39.6927 30.4193 40.1874 30.578C40.6914 30.746 41.2001 30.83 41.7134 30.83C42.5347 30.83 43.1367 30.6433 43.5194 30.27C43.9021 29.8967 44.0934 29.3273 44.0934 28.562V28.17C43.7947 28.4967 43.4307 28.744 43.0014 28.912C42.5721 29.08 42.1007 29.164 41.5874 29.164C40.8781 29.164 40.2341 29.0147 39.6554 28.716C39.0861 28.408 38.6334 27.9787 38.2974 27.428C37.9707 26.8773 37.8074 26.2473 37.8074 25.538C37.8074 24.8287 37.9707 24.2033 38.2974 23.662C38.6334 23.1113 39.0861 22.6867 39.6554 22.388C40.2341 22.0893 40.8781 21.94 41.5874 21.94C42.1287 21.94 42.6187 22.0287 43.0574 22.206C43.5054 22.3833 43.8787 22.654 44.1774 23.018V22.024ZM41.8534 27.68C42.5161 27.68 43.0574 27.484 43.4774 27.092C43.9067 26.6907 44.1214 26.1727 44.1214 25.538C44.1214 24.9127 43.9067 24.404 43.4774 24.012C43.0574 23.62 42.5161 23.424 41.8534 23.424C41.1814 23.424 40.6307 23.62 40.2014 24.012C39.7814 24.404 39.5714 24.9127 39.5714 25.538C39.5714 26.1727 39.7814 26.6907 40.2014 27.092C40.6307 27.484 41.1814 27.68 41.8534 27.68ZM52.3861 21.94C53.3288 21.94 54.0848 22.2153 54.6541 22.766C55.2234 23.3167 55.5081 24.1333 55.5081 25.216V29.5H53.7581V25.44C53.7581 24.7867 53.6041 24.2967 53.2961 23.97C52.9881 23.634 52.5494 23.466 51.9801 23.466C51.3361 23.466 50.8274 23.662 50.4541 24.054C50.0808 24.4367 49.8941 24.992 49.8941 25.72V29.5H48.1441V22.024H49.8101V22.99C50.0994 22.6447 50.4634 22.3833 50.9021 22.206C51.3408 22.0287 51.8354 21.94 52.3861 21.94ZM67.0852 22.024H68.8352V29.5H67.1692V28.548C66.8892 28.884 66.5392 29.1453 66.1192 29.332C65.6992 29.5093 65.2466 29.598 64.7612 29.598C63.7626 29.598 62.9739 29.3227 62.3952 28.772C61.8259 28.212 61.5412 27.386 61.5412 26.294V22.024H63.2912V26.056C63.2912 26.728 63.4406 27.232 63.7392 27.568C64.0472 27.8947 64.4812 28.058 65.0412 28.058C65.6666 28.058 66.1612 27.8667 66.5252 27.484C66.8986 27.092 67.0852 26.532 67.0852 25.804V22.024ZM75.2705 21.94C75.9985 21.94 76.6472 22.0987 77.2165 22.416C77.7952 22.7333 78.2478 23.1813 78.5745 23.76C78.9012 24.3387 79.0645 25.006 79.0645 25.762C79.0645 26.518 78.9012 27.19 78.5745 27.778C78.2478 28.3567 77.7952 28.8047 77.2165 29.122C76.6472 29.4393 75.9985 29.598 75.2705 29.598C74.2625 29.598 73.4645 29.262 72.8765 28.59V32.216H71.1265V22.024H72.7925V23.004C73.0818 22.6493 73.4365 22.3833 73.8565 22.206C74.2858 22.0287 74.7572 21.94 75.2705 21.94ZM75.0745 28.1C75.7185 28.1 76.2458 27.8853 76.6565 27.456C77.0765 27.0267 77.2865 26.462 77.2865 25.762C77.2865 25.062 77.0765 24.4973 76.6565 24.068C76.2458 23.6387 75.7185 23.424 75.0745 23.424C74.6545 23.424 74.2765 23.522 73.9405 23.718C73.6045 23.9047 73.3385 24.1753 73.1425 24.53C72.9465 24.8847 72.8485 25.2953 72.8485 25.762C72.8485 26.2287 72.9465 26.6393 73.1425 26.994C73.3385 27.3487 73.6045 27.624 73.9405 27.82C74.2765 28.0067 74.6545 28.1 75.0745 28.1Z" fill="white"/>
</g>
<defs>
<clipPath id="clip0_33_257">
<rect width="104" height="48" rx="8" fill="white"/>
</clipPath>
</defs>
</svg>
