<svg width="107" height="24" viewBox="0 0 107 24" fill="none" xmlns="http://www.w3.org/2000/svg">
<path d="M8.74733 21.75H7.49952C7.37414 21.75 7.25077 21.7185 7.14069 21.6585C7.03062 21.5984 6.93735 21.5118 6.86941 21.4064C6.80147 21.301 6.76104 21.1803 6.7518 21.0552C6.74257 20.9302 6.76483 20.8048 6.81655 20.6906L9.83811 14.0227L5.30108 13.9219L3.64639 15.9267C3.33092 16.3233 3.07921 16.5 2.43702 16.5H1.59702C1.46402 16.5043 1.33195 16.4764 1.212 16.4188C1.09205 16.3612 0.987757 16.2755 0.907956 16.1691C0.796393 16.0186 0.686706 15.7636 0.793581 15.3998L1.72264 12.0717C1.72967 12.0469 1.73811 12.022 1.74749 11.9977C1.74795 11.9953 1.74795 11.9929 1.74749 11.9906C1.73781 11.9663 1.72951 11.9414 1.72264 11.9161L0.792643 8.56687C0.691862 8.21016 0.802018 7.96078 0.912643 7.81406C0.986929 7.71549 1.08331 7.63573 1.19403 7.58118C1.30475 7.52664 1.42672 7.49883 1.55014 7.5H2.43702C2.91655 7.5 3.38202 7.71516 3.65577 8.0625L5.27624 10.0336L9.83811 9.96609L6.81749 3.30984C6.7657 3.19568 6.74335 3.07036 6.75249 2.94533C6.76163 2.8203 6.80196 2.69956 6.8698 2.59414C6.93764 2.48872 7.03082 2.40198 7.14083 2.34186C7.25083 2.28175 7.37416 2.25016 7.49952 2.25H8.76092C8.9369 2.25354 9.10983 2.29667 9.26685 2.3762C9.42388 2.45572 9.56097 2.5696 9.66796 2.70937L15.5297 9.83438L18.2376 9.76312C18.4359 9.75234 18.9853 9.74859 19.1123 9.74859C21.7026 9.75 23.2495 10.5909 23.2495 12C23.2495 12.4434 23.0723 13.2656 21.8869 13.7887C21.187 14.0981 20.2533 14.2547 19.1114 14.2547C18.9858 14.2547 18.4378 14.2509 18.2367 14.2402L15.5292 14.168L9.65296 21.293C9.54588 21.4321 9.40891 21.5454 9.25216 21.6246C9.0954 21.7037 8.92288 21.7465 8.74733 21.75Z" fill="#112211"/>
<path d="M30.982 12.208H35.868V13.748H30.982V12.208ZM31.136 17.5H29.316V7.7H36.47V9.226H31.136V17.5ZM38.0621 17.5V10.024H39.8121V17.5H38.0621ZM38.9441 8.792C38.6174 8.792 38.3467 8.68933 38.1321 8.484C37.9267 8.27867 37.8241 8.03133 37.8241 7.742C37.8241 7.44333 37.9267 7.196 38.1321 7C38.3467 6.79467 38.6174 6.692 38.9441 6.692C39.2707 6.692 39.5367 6.79 39.7421 6.986C39.9567 7.17267 40.0641 7.41067 40.0641 7.7C40.0641 8.008 39.9614 8.26933 39.7561 8.484C39.5507 8.68933 39.2801 8.792 38.9441 8.792ZM46.3509 9.94C46.9483 9.94 47.4803 10.0567 47.9469 10.29C48.4229 10.5233 48.7963 10.8827 49.0669 11.368C49.3376 11.844 49.4729 12.46 49.4729 13.216V17.5H47.7229V13.44C47.7229 12.7773 47.5643 12.2827 47.2469 11.956C46.9389 11.6293 46.5049 11.466 45.9449 11.466C45.5343 11.466 45.1703 11.55 44.8529 11.718C44.5356 11.886 44.2883 12.138 44.1109 12.474C43.9429 12.8007 43.8589 13.216 43.8589 13.72V17.5H42.1089V10.024H43.7749V12.04L43.4809 11.424C43.7423 10.948 44.1203 10.584 44.6149 10.332C45.1189 10.0707 45.6976 9.94 46.3509 9.94ZM54.8706 17.598C54.1519 17.598 53.5033 17.4393 52.9246 17.122C52.3553 16.7953 51.9073 16.3473 51.5806 15.778C51.2539 15.2087 51.0906 14.5367 51.0906 13.762C51.0906 12.9873 51.2539 12.3153 51.5806 11.746C51.9073 11.1767 52.3553 10.7333 52.9246 10.416C53.5033 10.0987 54.1519 9.94 54.8706 9.94C55.4959 9.94 56.0559 10.08 56.5506 10.36C57.0453 10.6307 57.4373 11.046 57.7266 11.606C58.0159 12.166 58.1606 12.8847 58.1606 13.762C58.1606 14.63 58.0206 15.3487 57.7406 15.918C57.4606 16.478 57.0733 16.898 56.5786 17.178C56.0839 17.458 55.5146 17.598 54.8706 17.598ZM55.0806 16.1C55.5006 16.1 55.8739 16.0067 56.2006 15.82C56.5366 15.6333 56.8026 15.3627 56.9986 15.008C57.2039 14.6533 57.3066 14.238 57.3066 13.762C57.3066 13.2767 57.2039 12.8613 56.9986 12.516C56.8026 12.1613 56.5366 11.8907 56.2006 11.704C55.8739 11.5173 55.5006 11.424 55.0806 11.424C54.6606 11.424 54.2826 11.5173 53.9466 11.704C53.6199 11.8907 53.3539 12.1613 53.1486 12.516C52.9526 12.8613 52.8546 13.2767 52.8546 13.762C52.8546 14.238 52.9526 14.6533 53.1486 15.008C53.3539 15.3627 53.6199 15.6333 53.9466 15.82C54.2826 16.0067 54.6606 16.1 55.0806 16.1ZM57.3486 17.5V15.736L57.4186 13.748L57.2786 11.76V7.112H59.0146V17.5H57.3486ZM67.0211 12.208H71.9071V13.748H67.0211V12.208ZM67.1751 17.5H65.3551V7.7H72.5091V9.226H67.1751V17.5ZM74.1011 17.5V7.112H75.8511V17.5H74.1011ZM78.148 17.5V10.024H79.898V17.5H78.148ZM79.03 8.792C78.7033 8.792 78.4327 8.68933 78.218 8.484C78.0127 8.27867 77.91 8.03133 77.91 7.742C77.91 7.44333 78.0127 7.196 78.218 7C78.4327 6.79467 78.7033 6.692 79.03 6.692C79.3567 6.692 79.6227 6.79 79.828 6.986C80.0427 7.17267 80.15 7.41067 80.15 7.7C80.15 8.008 80.0473 8.26933 79.842 8.484C79.6367 8.68933 79.366 8.792 79.03 8.792ZM85.5829 20.314C84.8922 20.314 84.2155 20.2207 83.5529 20.034C82.8995 19.8567 82.3629 19.5953 81.9429 19.25L82.7269 17.934C83.0535 18.2047 83.4642 18.4193 83.9589 18.578C84.4629 18.746 84.9715 18.83 85.4849 18.83C86.3062 18.83 86.9082 18.6387 87.2909 18.256C87.6735 17.8827 87.8649 17.318 87.8649 16.562V15.232L88.0049 13.538L87.9489 11.844V10.024H89.6149V16.366C89.6149 17.7193 89.2695 18.7133 88.5789 19.348C87.8882 19.992 86.8895 20.314 85.5829 20.314ZM85.3589 17.164C84.6495 17.164 84.0055 17.0147 83.4269 16.716C82.8575 16.408 82.4049 15.9833 82.0689 15.442C81.7422 14.9007 81.5789 14.266 81.5789 13.538C81.5789 12.8193 81.7422 12.1893 82.0689 11.648C82.4049 11.1067 82.8575 10.6867 83.4269 10.388C84.0055 10.0893 84.6495 9.94 85.3589 9.94C85.9935 9.94 86.5629 10.066 87.0669 10.318C87.5709 10.57 87.9722 10.962 88.2709 11.494C88.5789 12.026 88.7329 12.7073 88.7329 13.538C88.7329 14.3687 88.5789 15.0547 88.2709 15.596C87.9722 16.128 87.5709 16.5247 87.0669 16.786C86.5629 17.038 85.9935 17.164 85.3589 17.164ZM85.6249 15.68C86.0635 15.68 86.4555 15.5913 86.8009 15.414C87.1462 15.2273 87.4122 14.9753 87.5989 14.658C87.7949 14.3313 87.8929 13.958 87.8929 13.538C87.8929 13.118 87.7949 12.7493 87.5989 12.432C87.4122 12.1053 87.1462 11.858 86.8009 11.69C86.4555 11.5127 86.0635 11.424 85.6249 11.424C85.1862 11.424 84.7895 11.5127 84.4349 11.69C84.0895 11.858 83.8189 12.1053 83.6229 12.432C83.4362 12.7493 83.3429 13.118 83.3429 13.538C83.3429 13.958 83.4362 14.3313 83.6229 14.658C83.8189 14.9753 84.0895 15.2273 84.4349 15.414C84.7895 15.5913 85.1862 15.68 85.6249 15.68ZM96.1576 9.94C96.7549 9.94 97.2869 10.0567 97.7536 10.29C98.2296 10.5233 98.6029 10.8827 98.8736 11.368C99.1442 11.844 99.2796 12.46 99.2796 13.216V17.5H97.5296V13.44C97.5296 12.7773 97.3709 12.2827 97.0536 11.956C96.7456 11.6293 96.3116 11.466 95.7516 11.466C95.3409 11.466 94.9769 11.55 94.6596 11.718C94.3422 11.886 94.0949 12.138 93.9176 12.474C93.7496 12.8007 93.6656 13.216 93.6656 13.72V17.5H91.9156V7.112H93.6656V12.04L93.2876 11.424C93.5489 10.948 93.9269 10.584 94.4216 10.332C94.9256 10.0707 95.5042 9.94 96.1576 9.94ZM104.314 17.598C103.492 17.598 102.858 17.388 102.41 16.968C101.962 16.5387 101.738 15.9087 101.738 15.078V8.372H103.488V15.036C103.488 15.3907 103.576 15.666 103.754 15.862C103.94 16.058 104.197 16.156 104.524 16.156C104.916 16.156 105.242 16.0533 105.504 15.848L105.994 17.094C105.788 17.262 105.536 17.388 105.238 17.472C104.939 17.556 104.631 17.598 104.314 17.598ZM100.506 11.48V10.08H105.49V11.48H100.506Z" fill="#112211"/>
</svg>
