<svg width="39" height="15" viewBox="0 0 39 15" fill="none" xmlns="http://www.w3.org/2000/svg">
<path d="M7.26 11.5H0.316V1.7H2.136V9.96H7.26V11.5ZM11.8205 11.598C11.0645 11.598 10.3832 11.4347 9.7765 11.108C9.16983 10.7813 8.69383 10.3287 8.3485 9.75C8.0125 9.162 7.8445 8.49933 7.8445 7.762C7.8445 7.02467 8.0125 6.36667 8.3485 5.788C8.69383 5.20933 9.16983 4.75667 9.7765 4.43C10.3832 4.10333 11.0645 3.94 11.8205 3.94C12.5858 3.94 13.2718 4.10333 13.8785 4.43C14.4852 4.75667 14.9565 5.20933 15.2925 5.788C15.6378 6.36667 15.8105 7.02467 15.8105 7.762C15.8105 8.49933 15.6378 9.162 15.2925 9.75C14.9565 10.3287 14.4852 10.7813 13.8785 11.108C13.2718 11.4347 12.5858 11.598 11.8205 11.598ZM11.8205 10.1C12.4645 10.1 12.9965 9.88533 13.4165 9.456C13.8365 9.02667 14.0465 8.462 14.0465 7.762C14.0465 7.062 13.8365 6.49733 13.4165 6.068C12.9965 5.63867 12.4645 5.424 11.8205 5.424C11.1765 5.424 10.6445 5.63867 10.2245 6.068C9.81383 6.49733 9.6085 7.062 9.6085 7.762C9.6085 8.462 9.81383 9.02667 10.2245 9.456C10.6445 9.88533 11.1765 10.1 11.8205 10.1ZM23.2379 4.024H24.9039V10.366C24.9039 12.998 23.5599 14.314 20.8719 14.314C20.1533 14.314 19.4719 14.2207 18.8279 14.034C18.1839 13.8567 17.6519 13.5953 17.2319 13.25L18.0159 11.934C18.3426 12.2047 18.7533 12.4193 19.2479 12.578C19.7519 12.746 20.2606 12.83 20.7739 12.83C21.5953 12.83 22.1973 12.6433 22.5799 12.27C22.9626 11.8967 23.1539 11.3273 23.1539 10.562V10.17C22.8553 10.4967 22.4913 10.744 22.0619 10.912C21.6326 11.08 21.1613 11.164 20.6479 11.164C19.9386 11.164 19.2946 11.0147 18.7159 10.716C18.1466 10.408 17.6939 9.97867 17.3579 9.428C17.0313 8.87733 16.8679 8.24733 16.8679 7.538C16.8679 6.82867 17.0313 6.20333 17.3579 5.662C17.6939 5.11133 18.1466 4.68667 18.7159 4.388C19.2946 4.08933 19.9386 3.94 20.6479 3.94C21.1893 3.94 21.6793 4.02867 22.1179 4.206C22.5659 4.38333 22.9393 4.654 23.2379 5.018V4.024ZM20.9139 9.68C21.5766 9.68 22.1179 9.484 22.5379 9.092C22.9673 8.69067 23.1819 8.17267 23.1819 7.538C23.1819 6.91267 22.9673 6.404 22.5379 6.012C22.1179 5.62 21.5766 5.424 20.9139 5.424C20.2419 5.424 19.6913 5.62 19.2619 6.012C18.8419 6.404 18.6319 6.91267 18.6319 7.538C18.6319 8.17267 18.8419 8.69067 19.2619 9.092C19.6913 9.484 20.2419 9.68 20.9139 9.68ZM28.9546 11.5H27.2046V4.024H28.9546V11.5ZM28.0866 2.792C27.7693 2.792 27.5033 2.694 27.2886 2.498C27.074 2.29267 26.9666 2.04067 26.9666 1.742C26.9666 1.44333 27.074 1.196 27.2886 0.999999C27.5033 0.794666 27.7693 0.692 28.0866 0.692C28.404 0.692 28.67 0.79 28.8846 0.985999C29.0993 1.17267 29.2066 1.41067 29.2066 1.7C29.2066 2.008 29.0993 2.26933 28.8846 2.484C28.6793 2.68933 28.4133 2.792 28.0866 2.792ZM35.4935 3.94C36.4362 3.94 37.1922 4.21533 37.7615 4.766C38.3308 5.31667 38.6155 6.13333 38.6155 7.216V11.5H36.8655V7.44C36.8655 6.78667 36.7115 6.29667 36.4035 5.97C36.0955 5.634 35.6568 5.466 35.0875 5.466C34.4435 5.466 33.9348 5.662 33.5615 6.054C33.1882 6.43667 33.0015 6.992 33.0015 7.72V11.5H31.2515V4.024H32.9175V4.99C33.2068 4.64467 33.5708 4.38333 34.0095 4.206C34.4482 4.02867 34.9428 3.94 35.4935 3.94Z" fill="#112211"/>
</svg>
