<svg width="103" height="24" viewBox="0 0 103 24" fill="none" xmlns="http://www.w3.org/2000/svg">
<path d="M20.25 10.8141C19.7772 10.6065 19.2664 10.4996 18.75 10.5H5.25C4.73368 10.4995 4.22288 10.6063 3.75 10.8136C3.08166 11.1059 2.51294 11.5865 2.11336 12.1968C1.71377 12.8071 1.50064 13.5205 1.5 14.25V19.5C1.5 19.6989 1.57902 19.8897 1.71967 20.0303C1.86032 20.171 2.05109 20.25 2.25 20.25C2.44891 20.25 2.63968 20.171 2.78033 20.0303C2.92098 19.8897 3 19.6989 3 19.5V19.125C3.00122 19.0259 3.04112 18.9312 3.11118 18.8612C3.18124 18.7911 3.27592 18.7512 3.375 18.75H20.625C20.7241 18.7512 20.8188 18.7911 20.8888 18.8612C20.9589 18.9312 20.9988 19.0259 21 19.125V19.5C21 19.6989 21.079 19.8897 21.2197 20.0303C21.3603 20.171 21.5511 20.25 21.75 20.25C21.9489 20.25 22.1397 20.171 22.2803 20.0303C22.421 19.8897 22.5 19.6989 22.5 19.5V14.25C22.4993 13.5206 22.2861 12.8073 21.8865 12.1971C21.4869 11.5869 20.9183 11.1063 20.25 10.8141ZM17.625 3.75H6.375C5.67881 3.75 5.01113 4.02656 4.51884 4.51884C4.02656 5.01113 3.75 5.67881 3.75 6.375V9.75C3.75002 9.77906 3.75679 9.80771 3.76979 9.8337C3.78278 9.85969 3.80163 9.8823 3.82486 9.89976C3.84809 9.91721 3.87505 9.92903 3.90363 9.93428C3.93221 9.93953 3.96162 9.93806 3.98953 9.93C4.39896 9.81025 4.82341 9.74964 5.25 9.75H5.44828C5.49456 9.75029 5.53932 9.73346 5.57393 9.70274C5.60855 9.67202 5.63058 9.62958 5.63578 9.58359C5.67669 9.21712 5.85115 8.87856 6.12586 8.63256C6.40056 8.38656 6.75625 8.25037 7.125 8.25H9.75C10.119 8.25003 10.475 8.38606 10.75 8.63209C11.025 8.87812 11.1997 9.21688 11.2406 9.58359C11.2458 9.62958 11.2679 9.67202 11.3025 9.70274C11.3371 9.73346 11.3818 9.75029 11.4281 9.75H12.5747C12.621 9.75029 12.6657 9.73346 12.7003 9.70274C12.735 9.67202 12.757 9.62958 12.7622 9.58359C12.8031 9.21736 12.9773 8.87899 13.2517 8.63303C13.5261 8.38706 13.8815 8.25072 14.25 8.25H16.875C17.244 8.25003 17.6 8.38606 17.875 8.63209C18.15 8.87812 18.3247 9.21688 18.3656 9.58359C18.3708 9.62958 18.3929 9.67202 18.4275 9.70274C18.4621 9.73346 18.5068 9.75029 18.5531 9.75H18.75C19.1766 9.74979 19.6011 9.81057 20.0105 9.93047C20.0384 9.93854 20.0679 9.94 20.0965 9.93473C20.1251 9.92945 20.1521 9.91759 20.1753 9.90009C20.1986 9.88258 20.2174 9.8599 20.2304 9.83385C20.2433 9.8078 20.2501 9.7791 20.25 9.75V6.375C20.25 5.67881 19.9734 5.01113 19.4812 4.51884C18.9889 4.02656 18.3212 3.75 17.625 3.75Z" fill="#112211"/>
<path d="M30.982 12.208H35.868V13.748H30.982V12.208ZM31.136 17.5H29.316V7.7H36.47V9.226H31.136V17.5ZM38.0621 17.5V10.024H39.8121V17.5H38.0621ZM38.9441 8.792C38.6174 8.792 38.3467 8.68933 38.1321 8.484C37.9267 8.27867 37.8241 8.03133 37.8241 7.742C37.8241 7.44333 37.9267 7.196 38.1321 7C38.3467 6.79467 38.6174 6.692 38.9441 6.692C39.2707 6.692 39.5367 6.79 39.7421 6.986C39.9567 7.17267 40.0641 7.41067 40.0641 7.7C40.0641 8.008 39.9614 8.26933 39.7561 8.484C39.5507 8.68933 39.2801 8.792 38.9441 8.792ZM46.3509 9.94C46.9483 9.94 47.4803 10.0567 47.9469 10.29C48.4229 10.5233 48.7963 10.8827 49.0669 11.368C49.3376 11.844 49.4729 12.46 49.4729 13.216V17.5H47.7229V13.44C47.7229 12.7773 47.5643 12.2827 47.2469 11.956C46.9389 11.6293 46.5049 11.466 45.9449 11.466C45.5343 11.466 45.1703 11.55 44.8529 11.718C44.5356 11.886 44.2883 12.138 44.1109 12.474C43.9429 12.8007 43.8589 13.216 43.8589 13.72V17.5H42.1089V10.024H43.7749V12.04L43.4809 11.424C43.7423 10.948 44.1203 10.584 44.6149 10.332C45.1189 10.0707 45.6976 9.94 46.3509 9.94ZM54.8706 17.598C54.1519 17.598 53.5033 17.4393 52.9246 17.122C52.3553 16.7953 51.9073 16.3473 51.5806 15.778C51.2539 15.2087 51.0906 14.5367 51.0906 13.762C51.0906 12.9873 51.2539 12.3153 51.5806 11.746C51.9073 11.1767 52.3553 10.7333 52.9246 10.416C53.5033 10.0987 54.1519 9.94 54.8706 9.94C55.4959 9.94 56.0559 10.08 56.5506 10.36C57.0453 10.6307 57.4373 11.046 57.7266 11.606C58.0159 12.166 58.1606 12.8847 58.1606 13.762C58.1606 14.63 58.0206 15.3487 57.7406 15.918C57.4606 16.478 57.0733 16.898 56.5786 17.178C56.0839 17.458 55.5146 17.598 54.8706 17.598ZM55.0806 16.1C55.5006 16.1 55.8739 16.0067 56.2006 15.82C56.5366 15.6333 56.8026 15.3627 56.9986 15.008C57.2039 14.6533 57.3066 14.238 57.3066 13.762C57.3066 13.2767 57.2039 12.8613 56.9986 12.516C56.8026 12.1613 56.5366 11.8907 56.2006 11.704C55.8739 11.5173 55.5006 11.424 55.0806 11.424C54.6606 11.424 54.2826 11.5173 53.9466 11.704C53.6199 11.8907 53.3539 12.1613 53.1486 12.516C52.9526 12.8613 52.8546 13.2767 52.8546 13.762C52.8546 14.238 52.9526 14.6533 53.1486 15.008C53.3539 15.3627 53.6199 15.6333 53.9466 15.82C54.2826 16.0067 54.6606 16.1 55.0806 16.1ZM57.3486 17.5V15.736L57.4186 13.748L57.2786 11.76V7.112H59.0146V17.5H57.3486ZM68.3931 17.64C67.6277 17.64 66.8951 17.5327 66.1951 17.318C65.4951 17.094 64.9397 16.8093 64.5291 16.464L65.1591 15.05C65.5511 15.358 66.0364 15.6147 66.6151 15.82C67.1937 16.0253 67.7864 16.128 68.3931 16.128C68.9064 16.128 69.3217 16.072 69.6391 15.96C69.9564 15.848 70.1897 15.6987 70.3391 15.512C70.4884 15.316 70.5631 15.0967 70.5631 14.854C70.5631 14.5553 70.4557 14.3173 70.2411 14.14C70.0264 13.9533 69.7464 13.8087 69.4011 13.706C69.0651 13.594 68.6871 13.4913 68.2671 13.398C67.8564 13.3047 67.4411 13.1973 67.0211 13.076C66.6104 12.9453 66.2324 12.782 65.8871 12.586C65.5511 12.3807 65.2757 12.11 65.0611 11.774C64.8464 11.438 64.7391 11.0087 64.7391 10.486C64.7391 9.954 64.8791 9.46867 65.1591 9.03C65.4484 8.582 65.8824 8.22733 66.4611 7.966C67.0491 7.69533 67.7911 7.56 68.6871 7.56C69.2751 7.56 69.8584 7.63467 70.4371 7.784C71.0157 7.93333 71.5197 8.148 71.9491 8.428L71.3751 9.842C70.9364 9.58067 70.4837 9.38933 70.0171 9.268C69.5504 9.13733 69.1024 9.072 68.6731 9.072C68.1691 9.072 67.7584 9.13267 67.4411 9.254C67.1331 9.37533 66.9044 9.534 66.7551 9.73C66.6151 9.926 66.5451 10.15 66.5451 10.402C66.5451 10.7007 66.6477 10.9433 66.8531 11.13C67.0677 11.3073 67.3431 11.4473 67.6791 11.55C68.0244 11.6527 68.4071 11.7553 68.8271 11.858C69.2471 11.9513 69.6624 12.0587 70.0731 12.18C70.4931 12.3013 70.8711 12.46 71.2071 12.656C71.5524 12.852 71.8277 13.118 72.0331 13.454C72.2477 13.79 72.3551 14.2147 72.3551 14.728C72.3551 15.2507 72.2104 15.736 71.9211 16.184C71.6411 16.6227 71.2071 16.9773 70.6191 17.248C70.0311 17.5093 69.2891 17.64 68.3931 17.64ZM76.8058 17.598C75.9844 17.598 75.3498 17.388 74.9017 16.968C74.4538 16.5387 74.2298 15.9087 74.2298 15.078V8.372H75.9798V15.036C75.9798 15.3907 76.0684 15.666 76.2458 15.862C76.4324 16.058 76.6891 16.156 77.0158 16.156C77.4078 16.156 77.7344 16.0533 77.9958 15.848L78.4858 17.094C78.2804 17.262 78.0284 17.388 77.7298 17.472C77.4311 17.556 77.1231 17.598 76.8058 17.598ZM72.9978 11.48V10.08H77.9818V11.48H72.9978ZM84.5313 17.5V15.988L84.4333 15.666V13.02C84.4333 12.5067 84.2793 12.11 83.9713 11.83C83.6633 11.5407 83.1967 11.396 82.5713 11.396C82.1513 11.396 81.736 11.4613 81.3253 11.592C80.924 11.7227 80.5833 11.9047 80.3033 12.138L79.6173 10.864C80.0187 10.556 80.4947 10.3273 81.0453 10.178C81.6053 10.0193 82.184 9.94 82.7813 9.94C83.864 9.94 84.6993 10.2013 85.2873 10.724C85.8847 11.2373 86.1833 12.0353 86.1833 13.118V17.5H84.5313ZM82.1793 17.598C81.6193 17.598 81.1293 17.5047 80.7093 17.318C80.2893 17.122 79.9627 16.856 79.7293 16.52C79.5053 16.1747 79.3933 15.7873 79.3933 15.358C79.3933 14.938 79.4913 14.56 79.6873 14.224C79.8927 13.888 80.224 13.622 80.6813 13.426C81.1387 13.23 81.7453 13.132 82.5013 13.132H84.6713V14.294H82.6273C82.03 14.294 81.6287 14.392 81.4233 14.588C81.218 14.7747 81.1153 15.008 81.1153 15.288C81.1153 15.6053 81.2413 15.8573 81.4933 16.044C81.7453 16.2307 82.0953 16.324 82.5433 16.324C82.9727 16.324 83.3553 16.226 83.6913 16.03C84.0367 15.834 84.284 15.5447 84.4333 15.162L84.7273 16.212C84.5593 16.6507 84.256 16.9913 83.8173 17.234C83.388 17.4767 82.842 17.598 82.1793 17.598ZM88.9085 20.314C88.5445 20.314 88.1805 20.2533 87.8165 20.132C87.4525 20.0107 87.1492 19.8427 86.9065 19.628L87.6065 18.34C87.7839 18.4987 87.9845 18.6247 88.2085 18.718C88.4325 18.8113 88.6612 18.858 88.8945 18.858C89.2119 18.858 89.4685 18.7787 89.6645 18.62C89.8605 18.4613 90.0425 18.1953 90.2105 17.822L90.6445 16.842L90.7845 16.632L93.6125 10.024H95.2925L91.7925 18.102C91.5592 18.662 91.2979 19.1053 91.0085 19.432C90.7285 19.7587 90.4112 19.9873 90.0565 20.118C89.7112 20.2487 89.3285 20.314 88.9085 20.314ZM90.4485 17.766L87.0745 10.024H88.8945L91.6385 16.478L90.4485 17.766ZM98.6006 17.598C97.9752 17.598 97.3732 17.5187 96.7946 17.36C96.2252 17.192 95.7726 16.9913 95.4366 16.758L96.1086 15.428C96.4446 15.6427 96.8459 15.82 97.3126 15.96C97.7792 16.1 98.2459 16.17 98.7126 16.17C99.2632 16.17 99.6599 16.0953 99.9026 15.946C100.155 15.7967 100.281 15.596 100.281 15.344C100.281 15.1387 100.197 14.9847 100.029 14.882C99.8606 14.77 99.6412 14.686 99.3706 14.63C99.0999 14.574 98.7966 14.5227 98.4606 14.476C98.1339 14.4293 97.8026 14.3687 97.4666 14.294C97.1399 14.21 96.8412 14.0933 96.5706 13.944C96.2999 13.7853 96.0806 13.5753 95.9126 13.314C95.7446 13.0527 95.6606 12.7073 95.6606 12.278C95.6606 11.802 95.7959 11.3913 96.0666 11.046C96.3372 10.6913 96.7152 10.4207 97.2006 10.234C97.6952 10.038 98.2786 9.94 98.9506 9.94C99.4546 9.94 99.9632 9.996 100.477 10.108C100.99 10.22 101.415 10.3787 101.751 10.584L101.079 11.914C100.724 11.6993 100.365 11.5547 100.001 11.48C99.6459 11.396 99.2912 11.354 98.9366 11.354C98.4046 11.354 98.0079 11.4333 97.7466 11.592C97.4946 11.7507 97.3686 11.9513 97.3686 12.194C97.3686 12.418 97.4526 12.586 97.6206 12.698C97.7886 12.81 98.0079 12.8987 98.2786 12.964C98.5492 13.0293 98.8479 13.0853 99.1746 13.132C99.5106 13.1693 99.8419 13.23 100.169 13.314C100.495 13.398 100.794 13.5147 101.065 13.664C101.345 13.804 101.569 14.0047 101.737 14.266C101.905 14.5273 101.989 14.868 101.989 15.288C101.989 15.7547 101.849 16.1607 101.569 16.506C101.298 16.8513 100.911 17.122 100.407 17.318C99.9026 17.5047 99.3006 17.598 98.6006 17.598Z" fill="#112211"/>
</svg>
